<svg xmlns="http://www.w3.org/2000/svg" width="303.214" height="10.004" viewBox="0 0 303.214 10.004">
  <g id="ttl_character" transform="translate(-720.657 -3700.499)">
    <g id="グループ化_12" data-name="グループ化 12" transform="translate(657.811 5012.053)">
      <path id="C" d="M68.6-1311.436a5.981,5.981,0,0,1,1.586.188,2.93,2.93,0,0,0,1.418.055c.242-.055.473-.095.657-.119a.183.183,0,0,1,.122.019.077.077,0,0,1,.04.074,22.129,22.129,0,0,1-.6,2.391.423.423,0,0,1-.25.26.185.185,0,0,1-.241-.078l0-.007c-.09-.231-.188-.5-.283-.774a1.7,1.7,0,0,0-1.375-1.25c-.136-.011-.282-.018-.438-.018a3.961,3.961,0,0,0-4.026,4.2,3.963,3.963,0,0,0,3.22,4.117,3.268,3.268,0,0,0,2.613-.961q.552-.469,1-.8a.225.225,0,0,1,.3.032.319.319,0,0,1,.06.343,8.444,8.444,0,0,1-.464.888,2.7,2.7,0,0,1-1.925,1.25,9.451,9.451,0,0,1-1.318.125c-2.932,0-5.849-1.5-5.849-4.9,0-3.525,3.282-5.038,5.743-5.038Z" transform="translate(0 -0.049)"/>
      <path id="H" d="M120.843-1310.8a.285.285,0,0,1,.266-.2c.633,0,1.265.014,1.885.014.571,0,1.132-.011,1.69-.014a.175.175,0,0,1,.179.172.163.163,0,0,1-.008.049.664.664,0,0,1-.266.354l-.165.11a.8.8,0,0,0-.365.662v1.115a1.587,1.587,0,0,0,1.633,1.535h.973a1.6,1.6,0,0,0,1.651-1.551v-1.129a.8.8,0,0,0-.365-.662l-.18-.12a.306.306,0,0,1-.131-.33.276.276,0,0,1,.269-.207c.5,0,1.012.013,1.515.013.7,0,1.4-.012,2.107-.013a.168.168,0,0,1,.17.168.138.138,0,0,1-.006.039.454.454,0,0,1-.258.3l-.38.167a.952.952,0,0,0-.585.863v3c0,1.108.021,2.474.053,3.278a1.085,1.085,0,0,0,.705.939l.452.183a.24.24,0,0,1,.148.281.274.274,0,0,1-.266.2c-.692,0-1.392-.014-2.08-.014-.586,0-1.181.01-1.78.014a.177.177,0,0,1-.192-.156.171.171,0,0,1,0-.051.673.673,0,0,1,.254-.336l.172-.121a.846.846,0,0,0,.37-.67c.013-.534.014-1.062.013-1.586a1.8,1.8,0,0,0-1.9-1.662h-.462a1.861,1.861,0,0,0-1.909,1.808c0,.432,0,.885.012,1.362a.9.9,0,0,0,.469.748l.266.155a.268.268,0,0,1,.128.31.31.31,0,0,1-.306.2c-.571,0-1.143-.014-1.715-.014-.688,0-1.389.011-2.08.014a.159.159,0,0,1-.161-.156.149.149,0,0,1,.008-.044.485.485,0,0,1,.258-.294l.341-.162a.963.963,0,0,0,.562-.828c.028-.788.069-2.208.069-3.5v-2.937a.937.937,0,0,0-.562-.844l-.361-.165A.238.238,0,0,1,120.843-1310.8Z" transform="translate(-21.598 -0.228)"/>
      <path id="A" d="M187.559-1311.55a.067.067,0,0,1,.08.023.206.206,0,0,1,.031.122,2.142,2.142,0,0,0,.227.95c.213.6,1,2.455,2.9,6.979.271.682.448.813,1.4,1.2a.219.219,0,0,1,.132.275.3.3,0,0,1-.286.192c-.705,0-1.421-.014-2.137-.014-.519,0-1.037.011-1.544.014a.147.147,0,0,1-.156-.138.128.128,0,0,1,.007-.046.821.821,0,0,1,.219-.323l.106-.1a.518.518,0,0,0,.135-.572c-.081-.211-.192-.49-.319-.806a1.852,1.852,0,0,0-1.768-1.126c-.221,0-.475.008-.774.008a1.721,1.721,0,0,0-1.621,1.062c-.066.173-.123.328-.175.473a.718.718,0,0,0,.4.885l.4.191a.245.245,0,0,1,.136.294.279.279,0,0,1-.266.2c-.479,0-.971-.014-1.45-.014s-.969.011-1.461.014a.156.156,0,0,1-.158-.157.131.131,0,0,1,.008-.043.528.528,0,0,1,.251-.306l.335-.186a1.907,1.907,0,0,0,.792-.813c.618-1.267,1.921-4.2,2.971-6.686.192-.454.278-1.03.757-1.221Zm-1.225,2.264c-.013,0-.02.012-.025.024-.44,1.089-.7,1.748-.9,2.258a.9.9,0,0,0,.573,1.172,1.014,1.014,0,0,0,.306.057.911.911,0,0,0,.95-.865.831.831,0,0,0-.055-.312c-.343-.934-.618-1.684-.825-2.3-.005-.014-.011-.029-.026-.029Z" transform="translate(-44.366)"/>
      <path id="R" d="M241.88-1310.707a.376.376,0,0,1,.293-.23,36.3,36.3,0,0,1,4.06-.255c2.872,0,4.026.885,4.026,2.383,0,1.377-1.278,2.021-2.236,2.327-.019.006-.043.011-.053.028s0,.03.009.044c.366.634,1.421,2.209,2.034,3.051.865,1.161,1.124,1.459,1.287,1.659a.125.125,0,0,1-.018.168.283.283,0,0,1-.21.084,3.591,3.591,0,0,1-3.019-1.111,25.1,25.1,0,0,1-2.441-3.52.089.089,0,0,1-.005-.077.105.105,0,0,1,.081-.058c1.389-.317,2.258-.891,2.258-2.268a1.761,1.761,0,0,0-.979-1.75c-.905-.444-1.757.469-1.757,1.427v2.562c0,1.344,0,2.27.01,2.926a1.088,1.088,0,0,0,.735,1l.509.183a.231.231,0,0,1,.152.274.279.279,0,0,1-.276.2c-.719,0-1.448-.014-2.178-.014s-1.472.012-2.216.014a.165.165,0,0,1-.175-.154.166.166,0,0,1,.005-.046.471.471,0,0,1,.261-.289l.355-.16a.993.993,0,0,0,.586-.853c.033-.665.073-1.71.073-3.065v-3.4a.775.775,0,0,0-.63-.743l-.408-.088a.183.183,0,0,1-.141-.225A.132.132,0,0,1,241.88-1310.707Z" transform="translate(-66.839 -0.149)"/>
      <path id="A-2" d="M304.408-1311.549a.069.069,0,0,1,.081.023.209.209,0,0,1,.031.122,2.144,2.144,0,0,0,.227.95c.213.6,1,2.455,2.9,6.979.271.682.448.813,1.4,1.2a.219.219,0,0,1,.132.275.3.3,0,0,1-.287.192c-.7,0-1.421-.014-2.136-.014-.519,0-1.037.011-1.544.014a.148.148,0,0,1-.156-.138.13.13,0,0,1,.007-.047.828.828,0,0,1,.218-.322l.107-.1a.516.516,0,0,0,.135-.572c-.081-.211-.192-.49-.319-.806a1.851,1.851,0,0,0-1.768-1.126c-.221,0-.476.008-.774.008a1.724,1.724,0,0,0-1.621,1.062c-.065.173-.123.328-.175.472a.719.719,0,0,0,.4.885l.4.191a.245.245,0,0,1,.137.294.279.279,0,0,1-.266.2c-.479,0-.972-.014-1.45-.014s-.969.011-1.46.014a.155.155,0,0,1-.16-.15.151.151,0,0,1,.009-.05.53.53,0,0,1,.251-.306l.335-.186a1.906,1.906,0,0,0,.792-.813c.619-1.267,1.922-4.2,2.971-6.686.192-.454.277-1.03.757-1.22Zm-1.225,2.264c-.013,0-.021.012-.025.024-.44,1.089-.7,1.748-.9,2.258a.9.9,0,0,0,.573,1.172,1.014,1.014,0,0,0,.306.056.912.912,0,0,0,.951-.865.846.846,0,0,0-.056-.312c-.343-.934-.618-1.684-.825-2.3-.005-.014-.011-.029-.028-.029Z" transform="translate(-88.015 0)"/>
      <path id="C-2" d="M362.336-1311.436a5.981,5.981,0,0,1,1.586.188,2.932,2.932,0,0,0,1.419.055c.242-.055.473-.095.657-.119a.183.183,0,0,1,.122.019.078.078,0,0,1,.04.074,22.324,22.324,0,0,1-.6,2.391.424.424,0,0,1-.25.26.185.185,0,0,1-.241-.078l0-.006c-.089-.231-.187-.5-.283-.774a1.7,1.7,0,0,0-1.375-1.25c-.136-.011-.282-.018-.438-.018a3.961,3.961,0,0,0-4.027,4.2,3.963,3.963,0,0,0,3.221,4.117,3.268,3.268,0,0,0,2.613-.961q.553-.469,1-.8a.223.223,0,0,1,.3.032.319.319,0,0,1,.06.343,8.333,8.333,0,0,1-.464.888,2.7,2.7,0,0,1-1.924,1.25,9.45,9.45,0,0,1-1.318.125c-2.932,0-5.849-1.5-5.849-4.9,0-3.525,3.281-5.038,5.743-5.038Z" transform="translate(-109.725 -0.049)"/>
      <path id="T" d="M424.691-1311.135c.413-.067,1.08-.172,1.438-.2a.129.129,0,0,1,.107.039.121.121,0,0,1,.03.1c-.08.545-.349,1.871-.486,2.361a.271.271,0,0,1-.167.174.138.138,0,0,1-.177-.062c-.091-.21-.247-.534-.4-.877a1.517,1.517,0,0,0-1.456-.88,1.1,1.1,0,0,0-1.071,1.065v2.446c0,1.869.016,2.869.036,3.446a1.268,1.268,0,0,0,.944,1.142l.676.2a.207.207,0,0,1,.145.263h0a.3.3,0,0,1-.282.2c-.841,0-1.681-.014-2.521-.014-.868,0-1.75.012-2.632.014a.167.167,0,0,1-.17-.164.169.169,0,0,1,.006-.043.426.426,0,0,1,.277-.278l.559-.185a1.136,1.136,0,0,0,.8-1.05c.006-.532.006-1.419.006-3.072v-2.974a1.025,1.025,0,0,0-1-.993,1.732,1.732,0,0,0-1.522.743c-.227.332-.469.67-.657.9a.4.4,0,0,1-.213.13c-.063.016-.138-.008-.139-.069-.007-.553.032-1.931.1-2.409a.166.166,0,0,1,.066-.12.184.184,0,0,1,.11-.033c.147.007.382.039.62.077a9.065,9.065,0,0,0,1.406.121Z" transform="translate(-132.229 -0.092)"/>
      <path id="E" d="M474.385-1310.948a.292.292,0,0,1,.274-.192c.661,0,1.321.014,1.97.014h2.948a13.685,13.685,0,0,0,1.622-.105c.3-.036.611-.069.789-.079a.072.072,0,0,1,.056.027.1.1,0,0,1,.021.067c-.026.386-.218,1.6-.331,2.1a.262.262,0,0,1-.176.181.2.2,0,0,1-.234-.091c-.106-.17-.252-.412-.4-.655a1.574,1.574,0,0,0-1.438-.737l-.369.019a1.372,1.372,0,0,0-1.337,1.33v.44a1.668,1.668,0,0,0,1.691,1.646h.1c.721-.038,1.414-.091,1.963-.137a.157.157,0,0,1,.153.077.175.175,0,0,1,0,.177c-.164.268-.71.88-.9.88-.086,0-.556-.032-1.109-.071a1.735,1.735,0,0,0-1.887,1.542c0,.047-.005.095,0,.142,0,.2.006.41.01.614a1.414,1.414,0,0,0,1.388,1.319,2.707,2.707,0,0,0,2.183-.912c.287-.328.569-.635.809-.86a.236.236,0,0,1,.252-.027.213.213,0,0,1,.128.232c-.041.236-.13.654-.227,1.073a1.675,1.675,0,0,1-1.7,1.206c-.435-.006-.861-.006-1.3-.006H476.6c-.661,0-1.471.024-2.194.028a.156.156,0,0,1-.166-.144.136.136,0,0,1,.006-.048.459.459,0,0,1,.254-.278l.422-.185a1.072,1.072,0,0,0,.662-.92c.026-.662.044-1.8.044-3.348v-2.962a.99.99,0,0,0-.653-.913l-.454-.173A.213.213,0,0,1,474.385-1310.948Z" transform="translate(-153.677 -0.1)"/>
      <path id="R-2" d="M531.73-1310.707a.376.376,0,0,1,.293-.23,36.294,36.294,0,0,1,4.06-.255c2.872,0,4.026.885,4.026,2.383,0,1.377-1.28,2.021-2.236,2.327-.02.006-.043.011-.053.028s0,.03.009.044c.366.634,1.421,2.209,2.034,3.051.864,1.161,1.123,1.459,1.287,1.659a.125.125,0,0,1-.018.168.283.283,0,0,1-.21.084,3.591,3.591,0,0,1-3.019-1.111,25.047,25.047,0,0,1-2.441-3.52.089.089,0,0,1-.005-.077.105.105,0,0,1,.081-.058c1.389-.317,2.258-.891,2.258-2.268a1.761,1.761,0,0,0-.979-1.75c-.905-.444-1.757.469-1.757,1.427v2.562c0,1.344,0,2.27.01,2.926a1.089,1.089,0,0,0,.734,1l.51.183a.231.231,0,0,1,.152.274.28.28,0,0,1-.276.2c-.719,0-1.448-.014-2.179-.014s-1.471.012-2.215.014a.165.165,0,0,1-.175-.154.164.164,0,0,1,0-.046.473.473,0,0,1,.26-.289l.355-.16a.991.991,0,0,0,.586-.853c.034-.665.073-1.71.073-3.065v-3.4a.775.775,0,0,0-.631-.743l-.408-.088a.184.184,0,0,1-.14-.225A.128.128,0,0,1,531.73-1310.707Z" transform="translate(-175.114 -0.149)"/>
    </g>
  </g>
</svg>
