<svg id="ttl_collaboration" xmlns="http://www.w3.org/2000/svg" width="360.103" height="10" viewBox="0 0 360.103 10">
  <path id="パス_427" data-name="パス 427" d="M780.766,710.252a4.877,4.877,0,0,1,1.749.276,1.246,1.246,0,0,0,.8.035,6.462,6.462,0,0,1,.945-.2l.085.056a20.545,20.545,0,0,1-.625,2.614l-.341.142c-.134-.355-.3-.852-.443-1.3a1.219,1.219,0,0,0-1.011-.85,4.542,4.542,0,0,0-.563-.034c-2.443,0-3.764,2.017-3.764,4.176,0,2.188,1.321,4.177,3.849,4.177a1.988,1.988,0,0,0,.569-.057,24.225,24.225,0,0,1,2.116-1.889l.256.3a9.215,9.215,0,0,1-.847,1.652,1.225,1.225,0,0,1-.776.535,10.17,10.17,0,0,1-1.914.256c-2.742,0-5.469-1.491-5.469-4.872,0-3.508,3.068-5.014,5.369-5.014Z" transform="translate(-775.382 -710.167)"/>
  <path id="パス_428" data-name="パス 428" d="M797.54,710.252a4.948,4.948,0,1,1-5.171,5.028,5.041,5.041,0,0,1,5.157-5.028Zm-.213.582c-1.8,0-2.67,1.975-2.67,4.2,0,2.2,1.065,4.532,3.068,4.532,2.073,0,2.613-2.5,2.613-4.29s-.951-4.446-3-4.446Z" transform="translate(-762.382 -710.167)"/>
  <path id="パス_429" data-name="パス 429" d="M811.783,710.507c.667,0,1.335.015,2.017.015s1.377-.015,2.059-.015l-.127.413-.463.249a.873.873,0,0,0-.461.77v3.043c0,1.272.009,2.269.022,2.977a1.218,1.218,0,0,0,1.137,1.19l.7.048a1.217,1.217,0,0,0,1.074-.506c.415-.581.932-1.285,1.172-1.536l.256.114a15.788,15.788,0,0,1-.275,1.659,1.215,1.215,0,0,1-1.213.967c-.693-.012-1.838-.027-3.938-.027-.725,0-1.435.015-2.273.015l.114-.4.458-.2a1.212,1.212,0,0,0,.724-1.083c.015-.71.025-1.85.025-3.2v-2.79a1.219,1.219,0,0,0-.719-1.113l-.417-.188Z" transform="translate(-750.382 -710.167)"/>
  <path id="パス_430" data-name="パス 430" d="M829.283,710.507c.667,0,1.335.015,2.017.015s1.378-.015,2.06-.015l-.128.413-.463.249a.873.873,0,0,0-.461.77v3.043c0,1.272.009,2.269.022,2.977a1.219,1.219,0,0,0,1.137,1.19l.7.048a1.217,1.217,0,0,0,1.075-.506c.414-.581.931-1.285,1.172-1.536l.255.114a15.788,15.788,0,0,1-.275,1.659,1.214,1.214,0,0,1-1.213.967c-.693-.012-1.838-.027-3.938-.027-.724,0-1.435.015-2.273.015l.114-.4.458-.2a1.212,1.212,0,0,0,.724-1.083c.015-.71.025-1.85.025-3.2v-2.79a1.219,1.219,0,0,0-.719-1.113l-.417-.188Z" transform="translate(-739.382 -710.167)"/>
  <path id="パス_431" data-name="パス 431" d="M850.456,710.167l.057.085a2.236,2.236,0,0,0,.213,1.022c.2.6.937,2.444,2.713,6.947.27.724.44.823,1.491,1.278l-.128.384c-.724,0-1.463-.015-2.2-.015-.554,0-1.108.015-1.648.015l.128-.37.081-.079a.871.871,0,0,0,.212-.929c-.1-.258-.216-.58-.348-.933a1.222,1.222,0,0,0-1.187-.8c-.325.011-.746.02-1.322.018a1.245,1.245,0,0,0-1.169.813c-.081.219-.149.41-.208.584a.874.874,0,0,0,.432,1.065l.455.23-.114.4c-.511,0-1.037-.015-1.548-.015s-1.037.015-1.563.015l.114-.4.67-.4a1.189,1.189,0,0,0,.475-.518c.538-1.143,1.841-4.257,2.875-6.869a.645.645,0,0,0,.014-.369l-.142-.468Zm-1.207,2.272c-.431,1.134-.68,1.8-.869,2.323a.873.873,0,0,0,.8,1.171h.031a.877.877,0,0,0,.85-1.163c-.327-.949-.589-1.706-.783-2.331Z" transform="translate(-728.382 -710.167)"/>
  <path id="パス_432" data-name="パス 432" d="M863.979,710.579c.54-.057,2.684-.185,3.636-.185,2.571,0,3.921.625,3.921,2.131,0,1.392-1.251,2.031-2.458,2.187v.1c2.2.184,3.04,1.008,3.04,2.329,0,2.386-2.912,2.77-5,2.77-1.122,0-2.145-.014-3.3-.043l.1-.4.526-.282a.873.873,0,0,0,.46-.724c.025-.509.051-1.385.051-2.686v-3.839a.874.874,0,0,0-.6-.832l-.489-.159Zm3,2.21a1.217,1.217,0,0,0,2.4.274,2.479,2.479,0,0,0,.025-.354,1.556,1.556,0,0,0-.767-1.463,2.993,2.993,0,0,0-1.35-.256h-.312Zm2.9,4.323c0-1.036-.54-1.931-2.9-1.9v.213c0,.773.005,1.724.018,2.543a1.214,1.214,0,0,0,1.711,1.09,1.937,1.937,0,0,0,.714-.551,2.083,2.083,0,0,0,.455-1.377Z" transform="translate(-717.382 -710.167)"/>
  <path id="パス_433" data-name="パス 433" d="M886.621,710.252a4.948,4.948,0,1,1-5.171,5.028,5.041,5.041,0,0,1,5.157-5.028Zm-.213.582c-1.8,0-2.67,1.975-2.67,4.2,0,2.2,1.065,4.532,3.068,4.532,2.073,0,2.613-2.5,2.613-4.29s-.951-4.446-3-4.446Z" transform="translate(-707.382 -710.167)"/>
  <path id="パス_434" data-name="パス 434" d="M900.865,710.678a30.481,30.481,0,0,1,3.991-.284c2.685,0,3.765.88,3.765,2.372,0,1.392-1.236,2.031-2.131,2.329l-.014.029c.326.611,1.335,2.216,1.918,3.068.923,1.321,1.107,1.52,1.264,1.733l-.157.171c-1.7-.015-2.372-.441-2.94-1.108a25.134,25.134,0,0,1-2.3-3.537l.029-.086c1.334-.312,2.173-.88,2.173-2.273a1.821,1.821,0,0,0-.749-1.642,1.2,1.2,0,0,0-1.808,1.067v2.806c0,1.274,0,2.171.008,2.818a1.221,1.221,0,0,0,.783,1.125l.573.219-.1.4c-.739,0-1.492-.015-2.244-.015s-1.52.015-2.288.015l.114-.4.569-.273a.873.873,0,0,0,.5-.748c.032-.658.072-1.726.072-3.127v-3.294a.875.875,0,0,0-.68-.853l-.5-.114Z" transform="translate(-695.382 -710.167)"/>
  <path id="パス_435" data-name="パス 435" d="M923.1,710.167l.057.085a2.236,2.236,0,0,0,.213,1.022c.2.6.938,2.444,2.713,6.947.27.724.441.823,1.492,1.278l-.128.384c-.724,0-1.463-.015-2.2-.015-.554,0-1.108.015-1.647.015l.127-.37.082-.079a.875.875,0,0,0,.212-.929c-.1-.259-.217-.582-.35-.935a1.218,1.218,0,0,0-1.185-.795c-.325.011-.746.02-1.323.018a1.247,1.247,0,0,0-1.169.812c-.081.22-.148.411-.208.585a.876.876,0,0,0,.433,1.065l.454.23-.113.4c-.512,0-1.038-.015-1.549-.015s-1.036.015-1.563.015l.114-.4.67-.4a1.189,1.189,0,0,0,.475-.518c.538-1.142,1.841-4.257,2.875-6.869a.645.645,0,0,0,.014-.369l-.142-.468Zm-1.207,2.272c-.43,1.134-.68,1.8-.869,2.323a.873.873,0,0,0,.8,1.171h.031a.877.877,0,0,0,.85-1.163c-.327-.949-.588-1.706-.783-2.331Z" transform="translate(-683.382 -710.167)"/>
  <path id="パス_436" data-name="パス 436" d="M942.978,710.507a1.209,1.209,0,0,0,.2-.016c.416-.071,1.02-.169,1.31-.182l.07.085c-.07.554-.383,2.187-.5,2.528l-.242.1c-.092-.246-.354-.81-.568-1.339a.87.87,0,0,0-.859-.542l-.532.03a.874.874,0,0,0-.825.873v2.611c0,1.873.015,2.869.034,3.442a1.211,1.211,0,0,0,.851,1.115l.862.273-.128.4c-.852,0-1.7-.015-2.556-.015-.881,0-1.776.015-2.671.015l.113-.413.659-.232a1.209,1.209,0,0,0,.814-1.131c.005-.536.005-1.413.005-3v-3.069a.876.876,0,0,0-.822-.874l-.512-.031a.872.872,0,0,0-.8.411c-.293.471-.668,1.042-.91,1.347l-.256.071a25.27,25.27,0,0,1,.1-2.585l.1-.071a10,10,0,0,1,1.185.178,1.177,1.177,0,0,0,.222.02Z" transform="translate(-671.382 -710.167)"/>
  <path id="パス_437" data-name="パス 437" d="M954.877,710.507c.653,0,1.278.015,1.917.015.7,0,1.392-.015,2.088-.015l-.113.4-.491.253a.874.874,0,0,0-.475.778V715c0,1.412.015,2.5.033,3.177a1.221,1.221,0,0,0,.753,1.1l.521.216-.114.4c-.738,0-1.491-.029-2.244-.029s-1.478.029-2.216.029l.114-.4.43-.215a1.211,1.211,0,0,0,.674-1.043c.021-.673.032-1.78.032-3.231v-3.043a.874.874,0,0,0-.5-.789l-.54-.259Z" transform="translate(-660.382 -710.167)"/>
  <path id="パス_438" data-name="パス 438" d="M974.1,710.252a4.948,4.948,0,1,1-5.171,5.028,5.04,5.04,0,0,1,5.156-5.028Zm-.214.582c-1.8,0-2.67,1.975-2.67,4.2,0,2.2,1.066,4.532,3.069,4.532,2.073,0,2.613-2.5,2.613-4.29s-.952-4.446-3-4.446Z" transform="translate(-649.382 -710.167)"/>
  <path id="パス_439" data-name="パス 439" d="M990.752,719.883c-.6,0-1.251-.015-1.861-.015-.569,0-1.136.015-1.705.015l.057-.413.518-.279a1.21,1.21,0,0,0,.64-.995c.057-.979.136-2.865.208-5.672a1.277,1.277,0,0,0-.3-.862,2.371,2.371,0,0,0-1.218-.757l.17-.383,2.168-.069a.867.867,0,0,1,.745.373c.092.136.211.3.354.477,1.8,2.173,3.069,3.679,4.915,5.71h.028c0-.443-.045-3.245-.071-4.731a1.211,1.211,0,0,0-.77-1.107l-.721-.284.128-.384c.6,0,1.236.015,1.775.015.569,0,1.123-.015,1.677-.015l-.114.4-.425.233a1.217,1.217,0,0,0-.633,1.029c-.044,1.39-.141,4.36-.164,6.48,0,.454-.028,1.122-.056,1.434l-.313.086a51.974,51.974,0,0,1-6.505-7.316h-.029c-.022,1.655-.027,3.986.028,5.235a1.226,1.226,0,0,0,.777,1.082l.8.317Z" transform="translate(-637.382 -710.167)"/>
</svg>
