<svg xmlns="http://www.w3.org/2000/svg" width="151.02" height="10" viewBox="0 0 151.02 10">
  <g id="ttl" transform="translate(-754.001 -4568)">
    <g id="ttl_goods" transform="translate(1357.659 2069)">
      <path id="パス_190" data-name="パス 190" d="M537.846-1204.035a1.281,1.281,0,0,1,.72-.273c.442-.021,1.089-.043,1.818-.058a1.525,1.525,0,0,1,1.555,1.735c-.168,1.145-.324,1.975-.443,2.508a.715.715,0,0,1-.928.558,2.073,2.073,0,0,0-1.326-.122,5.513,5.513,0,0,1-1.418.25,4.772,4.772,0,0,1-5.119-4.877c0-3.046,2.445-5.076,5.591-5.076a4.844,4.844,0,0,1,1.536.232,2.018,2.018,0,0,0,1.27.048c.229-.076.445-.137.614-.178a.18.18,0,0,1,.148.041.15.15,0,0,1,.069.14c-.066.447-.4,1.8-.593,2.424a.437.437,0,0,1-.219.253.176.176,0,0,1-.241-.1c-.1-.246-.194-.508-.283-.763a1.724,1.724,0,0,0-1.29-1.28,4.749,4.749,0,0,0-.567-.032c-2.288,0-3.761,1.645-3.761,4.147,0,2,.984,3.9,3.326,4.1a1.573,1.573,0,0,0,1.534-1.643c.006-.089.011-.177.017-.267a1.185,1.185,0,0,0-1.1-1.275l-1.089-.066a.135.135,0,0,1-.119-.092.127.127,0,0,1,.043-.141Z" transform="translate(-1136.364 3708.437)"/>
      <path id="パス_191" data-name="パス 191" d="M558.161-1209.39a4.909,4.909,0,0,1,5.12,4.833,4.889,4.889,0,0,1-5.134,5.12,4.939,4.939,0,0,1-5.192-4.891,5.075,5.075,0,0,1,5.192-5.062Zm-.215.586c-1.816,0-2.688,1.988-2.688,4.233,0,2.217,1.072,4.562,3.089,4.562,2.088,0,2.631-2.517,2.631-4.319s-.958-4.476-3.017-4.476Z" transform="translate(-1121.004 3708.437)"/>
      <path id="パス_192" data-name="パス 192" d="M578.9-1209.39a4.91,4.91,0,0,1,5.12,4.833,4.889,4.889,0,0,1-5.134,5.12,4.939,4.939,0,0,1-5.191-4.891,5.074,5.074,0,0,1,5.191-5.062Zm-.214.586c-1.816,0-2.689,1.988-2.689,4.233,0,2.217,1.073,4.562,3.089,4.562,2.088,0,2.632-2.517,2.632-4.319s-.959-4.476-3.018-4.476Z" transform="translate(-1105.254 3708.437)"/>
      <path id="パス_193" data-name="パス 193" d="M594.167-1208.883a.248.248,0,0,1,.211-.195c.515-.049,1.873-.169,3.45-.169,4.419,0,6.121,1.859,6.121,4.59a4.525,4.525,0,0,1-3.175,4.491,12.094,12.094,0,0,1-4.333.5c-.776,0-1.661-.022-2.216-.037a.164.164,0,0,1-.158-.206.442.442,0,0,1,.248-.283l.338-.146a.931.931,0,0,0,.574-.807c.027-.658.041-1.827.041-3.469v-3.083a.856.856,0,0,0-.572-.807l-.4-.139A.2.2,0,0,1,594.167-1208.883Zm3.132,4.269c0,1,0,1.9,0,2.618a1.457,1.457,0,0,0,1.807,1.5,3.59,3.59,0,0,0,1.378-.786,4.277,4.277,0,0,0,1.215-3.26,3.967,3.967,0,0,0-1.287-3.118,3.594,3.594,0,0,0-1.329-.728,1.483,1.483,0,0,0-1.788,1.572Z" transform="translate(-1089.073 3708.437)"/>
      <path id="パス_194" data-name="パス 194" d="M618.162-1209.39a3.235,3.235,0,0,1,.958.14,1.6,1.6,0,0,0,1.055-.012c.133-.052.277-.1.419-.152a.361.361,0,0,1,.257,0,.165.165,0,0,1,.107.16,13.84,13.84,0,0,1-.48,2.162.305.305,0,0,1-.171.174.17.17,0,0,1-.212-.082c-.093-.165-.206-.4-.313-.637a1.529,1.529,0,0,0-1.138-1.046c-.071-.005-.146-.009-.224-.009a1.563,1.563,0,0,0-1.76,1.473,1.393,1.393,0,0,0,.844,1.2c.472.257,1.2.629,2.131,1.115,1.473.8,1.773,1.63,1.773,2.517,0,2.274-2.188,2.946-3.718,2.946a5.772,5.772,0,0,1-2.113-.461,1.2,1.2,0,0,1-.645-1.552,7.745,7.745,0,0,1,.4-.9.444.444,0,0,1,.175-.163.1.1,0,0,1,.149.052c.065.185.171.533.292.971a1.672,1.672,0,0,0,1.44,1.38h.129c1.172-.014,1.9-.572,1.9-1.573a1.483,1.483,0,0,0-.9-1.33c-.787-.429-1.387-.744-2.117-1.173a2.607,2.607,0,0,1-1.516-2.4c.015-1.473,1.173-2.8,3.261-2.8Z" transform="translate(-1074.047 3708.437)"/>
    </g>
  </g>
</svg>
