<svg xmlns="http://www.w3.org/2000/svg" width="275.032" height="9.998" viewBox="0 0 275.032 9.998">
  <g id="ttl_interview" transform="translate(-740.852 -4517.508)">
    <path id="I" d="M71.666-1311.01a.274.274,0,0,1,.25-.2c.6,0,1.174.014,1.763.014.641,0,1.282-.012,1.923-.014a.154.154,0,0,1,.148.159.157.157,0,0,1-.007.041.48.48,0,0,1-.244.3l-.3.157a.906.906,0,0,0-.491.8v3.1c0,1.544.017,2.7.038,3.379a1.049,1.049,0,0,0,.662.923l.434.179a.236.236,0,0,1,.136.283.279.279,0,0,1-.27.2c-.682,0-1.376-.028-2.07-.028s-1.36.023-2.041.028a.159.159,0,0,1-.159-.157.151.151,0,0,1,.006-.042.477.477,0,0,1,.246-.3l.346-.173a1.038,1.038,0,0,0,.583-.88c.025-.667.037-1.842.037-3.415v-3.068a.93.93,0,0,0-.526-.837l-.336-.161A.244.244,0,0,1,71.666-1311.01Z" transform="translate(669.417 5828.926)"/>
    <path id="N" d="M127.3-1301.908a.28.28,0,0,1-.28.2c-.542,0-1.118-.014-1.662-.014-.5,0-1.01.012-1.515.014a.186.186,0,0,1-.189-.182.2.2,0,0,1,0-.026.416.416,0,0,1,.214-.31l.377-.2a1.178,1.178,0,0,0,.612-.969c.056-.929.129-2.682.2-5.271a2.063,2.063,0,0,0-.659-1.744,2.437,2.437,0,0,0-.673-.342.2.2,0,0,1-.12-.256l.006-.015a.341.341,0,0,1,.3-.2l1.149-.037a2.74,2.74,0,0,1,2.148,1.069c1.726,2.078,2.983,3.57,4.782,5.55a.051.051,0,0,0,.036.023c.012,0,.014-.016.014-.029,0-.532-.047-3.3-.072-4.777a1.223,1.223,0,0,0-.766-1.121l-.559-.22a.217.217,0,0,1-.126-.27.3.3,0,0,1,.294-.194c.538,0,1.1.014,1.575.014.505,0,1-.011,1.493-.014a.158.158,0,0,1,.159.157.155.155,0,0,1-.006.043.5.5,0,0,1-.242.3l-.343.188a1.05,1.05,0,0,0-.545.884c-.043,1.361-.146,4.483-.17,6.7,0,.4-.022.974-.047,1.323a.213.213,0,0,1-.169.179.312.312,0,0,1-.28-.05,55.753,55.753,0,0,1-6.475-7.32.042.042,0,0,0-.03-.02c-.011,0-.015.015-.015.026-.022,1.692-.026,4.063.031,5.32a1.269,1.269,0,0,0,.836,1.093l.572.227A.238.238,0,0,1,127.3-1301.908Z" transform="translate(647.908 5828.948)"/>
    <path id="T" d="M188.856-1311.358c.393-.068,1.026-.173,1.366-.2a.115.115,0,0,1,.1.039.126.126,0,0,1,.029.1c-.076.552-.331,1.892-.462,2.389a.27.27,0,0,1-.159.176.127.127,0,0,1-.168-.063c-.087-.212-.235-.54-.383-.888a1.433,1.433,0,0,0-1.384-.89,1.079,1.079,0,0,0-1.018,1.077v2.474c0,1.891.015,2.9.034,3.487a1.268,1.268,0,0,0,.9,1.155l.643.2a.212.212,0,0,1,.137.266h0a.285.285,0,0,1-.268.2c-.8,0-1.6-.015-2.4-.015-.826,0-1.663.012-2.5.015a.163.163,0,0,1-.162-.165.161.161,0,0,1,.006-.044.418.418,0,0,1,.263-.282l.531-.187a1.141,1.141,0,0,0,.76-1.065c.005-.539.005-1.436.005-3.108v-3.008a1.007,1.007,0,0,0-.945-1.005,1.613,1.613,0,0,0-1.446.749c-.216.337-.446.678-.625.915a.376.376,0,0,1-.2.132c-.06.016-.131-.008-.132-.07-.006-.559.03-1.953.09-2.437a.17.17,0,0,1,.063-.121.169.169,0,0,1,.105-.035c.139.008.363.04.589.079a8.1,8.1,0,0,0,1.335.122Z" transform="translate(624.078 5829.071)"/>
    <path id="E" d="M240.2-1311.166a.277.277,0,0,1,.26-.2c.628,0,1.255.014,1.869.014h2.8a12.155,12.155,0,0,0,1.541-.107c.286-.036.581-.069.749-.079a.063.063,0,0,1,.053.027.106.106,0,0,1,.02.068c-.025.391-.207,1.616-.314,2.125a.256.256,0,0,1-.167.183.188.188,0,0,1-.223-.092c-.1-.172-.24-.417-.378-.663a1.472,1.472,0,0,0-1.366-.745l-.35.02a1.348,1.348,0,0,0-1.27,1.344v.445a1.635,1.635,0,0,0,1.606,1.665c.031,0,.062,0,.092,0,.685-.039,1.344-.092,1.866-.139a.146.146,0,0,1,.145.078.188.188,0,0,1,0,.178c-.156.27-.676.89-.853.89-.082,0-.529-.034-1.054-.072a1.681,1.681,0,0,0-1.795,1.559q-.005.072,0,.145c0,.207.005.416.009.621a1.384,1.384,0,0,0,1.318,1.335,2.5,2.5,0,0,0,2.075-.922c.273-.332.541-.644.769-.87a.213.213,0,0,1,.239-.027.218.218,0,0,1,.122.235c-.039.239-.123.662-.216,1.086a1.6,1.6,0,0,1-1.615,1.22c-.413-.006-.817-.006-1.236-.006h-2.6c-.629,0-1.4.023-2.085.028a.154.154,0,0,1-.158-.15.139.139,0,0,1,.005-.044.458.458,0,0,1,.242-.281l.4-.188a1.079,1.079,0,0,0,.629-.93c.024-.67.042-1.824.042-3.387v-3a1,1,0,0,0-.621-.922l-.431-.176A.219.219,0,0,1,240.2-1311.166Z" transform="translate(599.88 5829.059)"/>
    <path id="R" d="M297.324-1310.92a.36.36,0,0,1,.278-.233,32.409,32.409,0,0,1,3.858-.259c2.729,0,3.826.9,3.826,2.411a2.653,2.653,0,0,1-2.123,2.353c-.018.006-.041.011-.05.029a.053.053,0,0,0,.009.045c.35.642,1.349,2.235,1.933,3.088.821,1.175,1.067,1.477,1.223,1.678a.133.133,0,0,1-.017.169.263.263,0,0,1-.2.085,3.311,3.311,0,0,1-2.869-1.125,25.441,25.441,0,0,1-2.319-3.56.094.094,0,0,1-.005-.078.1.1,0,0,1,.078-.059c1.32-.32,2.148-.9,2.148-2.295a1.807,1.807,0,0,0-.931-1.77c-.858-.45-1.668.475-1.668,1.444v2.592c0,1.36,0,2.3.009,2.96a1.1,1.1,0,0,0,.7,1.01l.484.186a.235.235,0,0,1,.144.277.269.269,0,0,1-.261.2c-.683,0-1.376-.015-2.07-.015s-1.4.012-2.1.015a.162.162,0,0,1-.166-.158.142.142,0,0,1,0-.042.467.467,0,0,1,.25-.293l.338-.162a1.006,1.006,0,0,0,.559-.863c.031-.673.069-1.73.069-3.1v-3.442a.773.773,0,0,0-.6-.749l-.387-.088a.187.187,0,0,1-.147-.219A.141.141,0,0,1,297.324-1310.92Z" transform="translate(576.3 5829.008)"/>
    <path id="V" d="M356.143-1311.013a.622.622,0,0,1-.206.35l-.09.078a.476.476,0,0,0-.124.538c.275.7.83,2.165,2.347,6.093,0,.011.011.023.023.023s.021-.018.026-.032c.5-1.318,1.4-3.846,2.1-6.068a.55.55,0,0,0-.138-.556l-.086-.083a.343.343,0,0,1-.088-.35.289.289,0,0,1,.277-.2c.257,0,.528.012.8.012.442,0,.873-.022,1.313-.028a.164.164,0,0,1,.157.17.169.169,0,0,1,0,.03.421.421,0,0,1-.25.3c-.146.068-.269.132-.378.194a2.138,2.138,0,0,0-.843,1.026c-.534,1.206-1.5,3.634-2.456,6.126a4.386,4.386,0,0,1-.81,1.42,3.775,3.775,0,0,1-.527.488.247.247,0,0,1-.144.05.09.09,0,0,1-.09-.045c-.371-.922-1.973-4.991-3.122-7.825a2.327,2.327,0,0,0-.849-1.2,4.593,4.593,0,0,0-.5-.25.227.227,0,0,1-.13-.283.288.288,0,0,1,.267-.194c.63,0,1.271.028,1.9.028.506,0,.989-.011,1.469-.013a.17.17,0,0,1,.163.177A.11.11,0,0,1,356.143-1311.013Z" transform="translate(553.573 5828.936)"/>
    <path id="I-2" d="M410.8-1311.01a.273.273,0,0,1,.25-.2c.6,0,1.174.014,1.763.014.642,0,1.282-.012,1.924-.014a.155.155,0,0,1,.148.16.149.149,0,0,1-.007.039.486.486,0,0,1-.244.3l-.3.157a.906.906,0,0,0-.491.8v3.1c0,1.544.018,2.7.038,3.379a1.049,1.049,0,0,0,.662.923l.434.179a.236.236,0,0,1,.136.283.279.279,0,0,1-.269.2c-.683,0-1.376-.028-2.07-.028s-1.36.023-2.041.028a.158.158,0,0,1-.159-.156.179.179,0,0,1,.005-.043.479.479,0,0,1,.246-.3l.346-.173a1.038,1.038,0,0,0,.583-.88c.025-.667.038-1.842.038-3.415v-3.068a.929.929,0,0,0-.527-.837l-.336-.161A.243.243,0,0,1,410.8-1311.01Z" transform="translate(529.558 5828.926)"/>
    <path id="E-2" d="M462.728-1311.166a.277.277,0,0,1,.26-.2c.628,0,1.255.014,1.869.014h2.8a12.171,12.171,0,0,0,1.541-.107c.286-.036.58-.069.749-.079a.063.063,0,0,1,.053.027.106.106,0,0,1,.02.068c-.025.391-.207,1.616-.314,2.125a.257.257,0,0,1-.167.183.188.188,0,0,1-.223-.092c-.1-.172-.24-.417-.378-.663a1.472,1.472,0,0,0-1.366-.745l-.35.02a1.349,1.349,0,0,0-1.271,1.344v.445a1.636,1.636,0,0,0,1.606,1.665c.031,0,.061,0,.092,0,.686-.039,1.344-.092,1.866-.139a.147.147,0,0,1,.146.078.188.188,0,0,1,0,.178c-.156.27-.676.89-.853.89-.083,0-.529-.034-1.055-.072a1.68,1.68,0,0,0-1.794,1.559c0,.048,0,.1,0,.145,0,.207.006.416.009.621a1.384,1.384,0,0,0,1.319,1.335,2.5,2.5,0,0,0,2.074-.922c.273-.332.542-.644.769-.87a.213.213,0,0,1,.239-.027.219.219,0,0,1,.122.235c-.039.239-.123.662-.216,1.086a1.6,1.6,0,0,1-1.615,1.22c-.414-.006-.817-.006-1.236-.006h-2.6c-.628,0-1.4.023-2.085.028a.154.154,0,0,1-.158-.15.139.139,0,0,1,.005-.044.455.455,0,0,1,.242-.281l.4-.188a1.08,1.08,0,0,0,.629-.93c.024-.67.042-1.824.042-3.387v-3a1,1,0,0,0-.621-.922l-.431-.176A.219.219,0,0,1,462.728-1311.166Z" transform="translate(508.108 5829.059)"/>
    <path id="W" d="M513.722-1311.019a.286.286,0,0,1,.263-.194c.618,0,1.245.014,1.873.014h1.417a.166.166,0,0,1,.166.165.179.179,0,0,1,0,.031.779.779,0,0,1-.163.35l-.047.056a.468.468,0,0,0-.071.472c.3.766.849,2.073,2.63,6.181a.035.035,0,0,0,.032.024c.019,0,.032-.018.04-.034.214-.407.4-.794.616-1.255a3.066,3.066,0,0,0,.027-2.555c-.312-.7-.6-1.315-.852-1.838a1.973,1.973,0,0,0-.8-.964c-.111-.057-.24-.117-.394-.184a.222.222,0,0,1-.111-.265.272.272,0,0,1,.273-.194c.518,0,1.036.014,1.554.014h.885a.433.433,0,0,1,.434.389,2.652,2.652,0,0,0,.173.749c.114.276.308.7.709,1.6a.028.028,0,0,0,.023.021c.012,0,.019-.01.025-.021.347-.727.554-1.129.749-1.585a2.1,2.1,0,0,0,.157-.712l.02-.35a.157.157,0,0,1,.016-.061.058.058,0,0,1,.052-.029h.6c.429,0,.859-.011,1.288-.013a.149.149,0,0,1,.14.159.148.148,0,0,1-.006.035.392.392,0,0,1-.215.266c-.192.084-.359.162-.507.239a2.6,2.6,0,0,0-.994,1.049c-.1.164-.205.357-.331.584a2.894,2.894,0,0,0-.094,2.547c.265.612.6,1.4,1.012,2.331,0,.009.007.022.017.022s.015-.019.02-.032c.525-1.3,1.448-3.8,2.2-5.96a.6.6,0,0,0-.1-.577l-.081-.1a.376.376,0,0,1-.064-.354.3.3,0,0,1,.282-.2h.649c.492,0,.985-.011,1.468-.014a.15.15,0,0,1,.156.143.166.166,0,0,1-.006.051.417.417,0,0,1-.224.266,4.02,4.02,0,0,0-.485.25,2.578,2.578,0,0,0-.918,1.165c-.6,1.316-1.726,4.042-2.676,6.482a6.847,6.847,0,0,1-.975,1.363.211.211,0,0,1-.15.066.117.117,0,0,1-.113-.057c-.284-.624-1.084-2.494-1.862-4.163-.008-.016-.014-.039-.033-.039s-.021.013-.028.025c-.556,1.058-.986,1.974-1.373,2.8a6.816,6.816,0,0,1-1.041,1.369.239.239,0,0,1-.157.061.158.158,0,0,1-.134-.1c-.492-1.1-2.542-5.857-3.531-8a2.021,2.021,0,0,0-.858-1.025c-.122-.061-.269-.125-.45-.2a.21.21,0,0,1-.126-.269Z" transform="translate(487.024 5828.927)"/>
  </g>
</svg>
