<svg xmlns="http://www.w3.org/2000/svg" width="167.146" height="11.367" viewBox="0 0 167.146 11.367">
  <g id="グループ化_16" data-name="グループ化 16" transform="translate(-745.298 -2048.818)">
    <path id="M" d="M29.012-1304.978a.375.375,0,0,1,.341-.223l1.53-.015a2.643,2.643,0,0,1,2.288,1.675c.556,1.175,1.46,3,2.557,5.3.007.013.015.027.029.027s.029-.025.037-.044c.4-.834,1.355-2.744,2.5-5.228a2.746,2.746,0,0,1,2.409-1.737l1.661.015a.19.19,0,0,1,.189.191.2.2,0,0,1,0,.04.444.444,0,0,1-.265.316l-.469.19a1.053,1.053,0,0,0-.671.991c.051,1.848.215,5.492.324,7.153a1.308,1.308,0,0,0,.813,1.124l.524.213a.271.271,0,0,1,.162.318.3.3,0,0,1-.284.227c-.728,0-1.468-.016-2.208-.016-.755,0-1.5.013-2.261.016a.18.18,0,0,1-.177-.181.215.215,0,0,1,.007-.046.614.614,0,0,1,.268-.354l.287-.177a1,1,0,0,0,.483-.852c-.03-2.406-.06-4.788-.09-7.182,0-.026-.008-.057-.033-.057s-.041.021-.051.044c-.787,1.844-1.919,4.319-3.669,8.617a.445.445,0,0,1-.28.263.223.223,0,0,1-.271-.124c-.77-1.865-1.492-3.567-3.571-8.559-.006-.014-.014-.029-.029-.029s-.017.015-.019.029c-.17,1.994-.354,5.171-.425,6.73a1.169,1.169,0,0,0,.7,1.112l.521.234a.279.279,0,0,1,.157.314.289.289,0,0,1-.289.219c-.56,0-1.132-.015-1.7-.015-.543,0-1.1.012-1.645.015a.178.178,0,0,1-.181-.174.172.172,0,0,1,.005-.045.524.524,0,0,1,.257-.33l.38-.209a1.364,1.364,0,0,0,.7-.983c.207-1.369.571-4.394.832-6.6.074-.625.049-1.37-.526-1.623-.165-.072-.386-.154-.7-.269a.227.227,0,0,1-.138-.29Z" transform="translate(717.1 3354.262)"/>
    <path id="O" d="M96.655-1305.556a5.607,5.607,0,0,1,5.846,5.52,5.582,5.582,0,0,1-5.862,5.846c-2.662,0-5.928-1.748-5.928-5.585a5.8,5.8,0,0,1,5.811-5.783h.134Zm-.245.669c-2.074,0-3.069,2.27-3.069,4.834,0,2.531,1.225,5.21,3.527,5.21,2.387,0,3.005-2.874,3.005-4.932,0-2.075-1.094-5.112-3.446-5.112Z" transform="translate(696.382 3354.375)"/>
    <path id="V" d="M152.219-1304.98a.709.709,0,0,1-.232.394l-.1.088a.538.538,0,0,0-.14.608c.311.792.938,2.449,2.653,6.894,0,.012.013.026.027.026s.023-.021.03-.037c.564-1.49,1.591-4.353,2.371-6.863a.62.62,0,0,0-.156-.629l-.1-.094a.386.386,0,0,1-.1-.4.325.325,0,0,1,.314-.227c.291,0,.6.014.9.014.5,0,.988-.025,1.485-.031a.186.186,0,0,1,.175.2.261.261,0,0,1,0,.032.477.477,0,0,1-.284.336c-.164.075-.3.148-.428.219a2.414,2.414,0,0,0-.954,1.161c-.6,1.364-1.693,4.11-2.777,6.929a4.976,4.976,0,0,1-.915,1.607,4.265,4.265,0,0,1-.6.553.281.281,0,0,1-.162.057.1.1,0,0,1-.1-.051c-.419-1.043-2.23-5.645-3.531-8.851a2.629,2.629,0,0,0-.961-1.364,5.391,5.391,0,0,0-.565-.284.258.258,0,0,1-.148-.319.327.327,0,0,1,.3-.219c.713,0,1.437.031,2.147.031.571,0,1.118-.013,1.661-.016a.192.192,0,0,1,.195.19A.156.156,0,0,1,152.219-1304.98Z" transform="translate(677.427 3354.268)"/>
    <path id="I" d="M210.515-1304.984a.31.31,0,0,1,.284-.227c.675,0,1.328.016,1.994.016.725,0,1.45-.013,2.175-.016a.174.174,0,0,1,.168.181.136.136,0,0,1-.008.046.549.549,0,0,1-.277.338l-.341.176a1.023,1.023,0,0,0-.555.909v3.507c0,1.747.02,3.058.043,3.823a1.183,1.183,0,0,0,.749,1.043l.49.2a.268.268,0,0,1,.155.319.315.315,0,0,1-.3.227c-.772,0-1.556-.031-2.341-.031-.77,0-1.539.027-2.309.031a.177.177,0,0,1-.177-.178.178.178,0,0,1,.007-.05.542.542,0,0,1,.278-.335l.392-.2a1.175,1.175,0,0,0,.659-1c.029-.754.042-2.083.042-3.864v-3.471a1.052,1.052,0,0,0-.6-.947l-.38-.182A.275.275,0,0,1,210.515-1304.984Z" transform="translate(656.761 3354.26)"/>
    <path id="E" d="M264.98-1305.043a.315.315,0,0,1,.294-.22c.71,0,1.421.015,2.115.015h3.169a13.8,13.8,0,0,0,1.744-.121c.324-.041.657-.078.848-.089a.071.071,0,0,1,.061.031.113.113,0,0,1,.022.076c-.027.443-.234,1.829-.355,2.4a.291.291,0,0,1-.189.207.213.213,0,0,1-.252-.1c-.114-.194-.271-.473-.427-.75a1.668,1.668,0,0,0-1.546-.843l-.4.023a1.524,1.524,0,0,0-1.437,1.522v.5a1.85,1.85,0,0,0,1.816,1.883c.035,0,.07,0,.1,0,.776-.044,1.521-.1,2.11-.157a.165.165,0,0,1,.165.087.215.215,0,0,1,0,.2c-.177.306-.765,1.007-.966,1.007-.094,0-.6-.038-1.193-.081a1.9,1.9,0,0,0-2.028,1.764c0,.054-.005.109,0,.163,0,.234.006.469.01.7a1.566,1.566,0,0,0,1.492,1.509,2.825,2.825,0,0,0,2.347-1.043c.308-.375.612-.727.869-.984a.241.241,0,0,1,.271-.03.245.245,0,0,1,.138.265c-.044.269-.139.748-.244,1.228a1.812,1.812,0,0,1-1.827,1.379c-.467-.006-.925-.006-1.4-.006h-2.939c-.711,0-1.583.027-2.359.032a.171.171,0,0,1-.177-.163.177.177,0,0,1,.007-.056.51.51,0,0,1,.273-.318l.455-.213a1.222,1.222,0,0,0,.712-1.052c.027-.757.048-2.063.048-3.83v-3.391a1.131,1.131,0,0,0-.7-1.044l-.487-.2A.248.248,0,0,1,264.98-1305.043Z" transform="translate(638.681 3354.342)"/>
  </g>
</svg>
