<svg xmlns="http://www.w3.org/2000/svg" width="144.842" height="10.418" viewBox="0 0 144.842 10.418">
  <g id="ttl_staff" transform="translate(-767.632 -5747.294)">
    <path id="S" d="M190.441-1311.464a3.379,3.379,0,0,1,1,.146,1.661,1.661,0,0,0,1.093-.012c.138-.052.288-.1.436-.156a.37.37,0,0,1,.266,0,.171.171,0,0,1,.111.166,14.363,14.363,0,0,1-.5,2.246.319.319,0,0,1-.177.181.176.176,0,0,1-.221-.085c-.1-.172-.214-.417-.325-.661a1.587,1.587,0,0,0-1.183-1.087c-.074-.006-.152-.009-.233-.009a1.622,1.622,0,0,0-1.827,1.53,1.444,1.444,0,0,0,.877,1.25c.49.268,1.25.654,2.213,1.159,1.53.833,1.843,1.694,1.843,2.615,0,2.362-2.273,3.06-3.863,3.06a5.977,5.977,0,0,1-2.2-.48,1.243,1.243,0,0,1-.67-1.614,8.043,8.043,0,0,1,.417-.934.449.449,0,0,1,.182-.169.108.108,0,0,1,.148.036.159.159,0,0,1,.008.016c.068.193.178.554.3,1.008a1.736,1.736,0,0,0,1.5,1.435h.134c1.218-.015,1.979-.595,1.979-1.635a1.539,1.539,0,0,0-.937-1.381c-.817-.446-1.441-.773-2.2-1.219a2.709,2.709,0,0,1-1.575-2.5c.015-1.531,1.218-2.913,3.387-2.913Z" transform="translate(580.641 7058.832)"/>
    <path id="T" d="M248.787-1311.127c.4-.07,1.056-.178,1.406-.2a.123.123,0,0,1,.1.041.135.135,0,0,1,.029.1c-.079.568-.341,1.947-.475,2.458a.274.274,0,0,1-.164.181.13.13,0,0,1-.172-.064c-.09-.219-.242-.557-.394-.914a1.474,1.474,0,0,0-1.424-.916,1.11,1.11,0,0,0-1.047,1.109v2.546c0,1.946.015,2.988.035,3.588a1.3,1.3,0,0,0,.923,1.188l.661.208a.217.217,0,0,1,.141.272h0a.293.293,0,0,1-.275.208c-.822,0-1.644-.014-2.465-.014-.849,0-1.711.012-2.573.014a.168.168,0,0,1-.167-.171.16.16,0,0,1,.007-.045.426.426,0,0,1,.27-.289l.546-.194a1.174,1.174,0,0,0,.781-1.093c.006-.554.006-1.476.006-3.2v-3.1a1.037,1.037,0,0,0-.973-1.034,1.66,1.66,0,0,0-1.487.772c-.222.345-.458.7-.643.942a.4.4,0,0,1-.208.135c-.062.017-.135-.009-.136-.072-.007-.576.031-2.01.093-2.508a.171.171,0,0,1,.064-.124.173.173,0,0,1,.108-.036c.144.008.374.041.607.081a8.42,8.42,0,0,0,1.375.126Z" transform="translate(559.68 7058.763)"/>
    <path id="A" d="M303.347-1311.549a.066.066,0,0,1,.08.024.231.231,0,0,1,.03.127,2.353,2.353,0,0,0,.222.99c.208.625.98,2.555,2.837,7.265.265.71.438.846,1.364,1.25a.232.232,0,0,1,.129.286.3.3,0,0,1-.281.2c-.688,0-1.389-.014-2.089-.014-.507,0-1.014.011-1.51.014a.148.148,0,0,1-.153-.145.147.147,0,0,1,.007-.048.852.852,0,0,1,.213-.335l.1-.1a.562.562,0,0,0,.132-.6c-.079-.22-.187-.51-.312-.84a1.809,1.809,0,0,0-1.73-1.172c-.216.005-.465.008-.756.009a1.687,1.687,0,0,0-1.586,1.1c-.064.18-.12.342-.17.492a.765.765,0,0,0,.387.921l.394.2a.26.26,0,0,1,.134.305.277.277,0,0,1-.26.208c-.469,0-.95-.014-1.418-.014s-.948.011-1.428.014a.156.156,0,0,1-.156-.157.164.164,0,0,1,.009-.052.545.545,0,0,1,.246-.318l.327-.195a1.921,1.921,0,0,0,.774-.847c.606-1.32,1.88-4.374,2.905-6.96.187-.472.271-1.073.74-1.271Zm-1.2,2.357c-.013,0-.02.013-.025.025-.43,1.133-.686,1.82-.88,2.352a.95.95,0,0,0,.56,1.22.942.942,0,0,0,.3.058.915.915,0,0,0,.93-.9.932.932,0,0,0-.055-.325c-.336-.972-.6-1.753-.807-2.4C302.17-1309.176,302.164-1309.193,302.15-1309.193Z" transform="translate(537.811 7058.849)"/>
    <path id="F" d="M357.483-1310.932a.289.289,0,0,1,.26-.2c.608,0,1.226.014,1.832.014h3.892c.274-.043,1.133-.156,1.5-.19a.049.049,0,0,1,.048.027.138.138,0,0,1,.013.074c-.029.448-.274,1.839-.4,2.363a.27.27,0,0,1-.175.185.181.181,0,0,1-.219-.108c-.113-.234-.239-.5-.361-.756a1.515,1.515,0,0,0-1.433-.866l-.35.015a1.423,1.423,0,0,0-1.359,1.42v.573a1.782,1.782,0,0,0,1.771,1.795c.037,0,.074,0,.11,0,.663-.041,1.294-.1,1.806-.148a.168.168,0,0,1,.16.094.192.192,0,0,1,.011.2c-.171.272-.707.885-.9.885-.086,0-.636-.042-1.25-.086a1.6,1.6,0,0,0-1.695,1.489c0,.042,0,.083,0,.125,0,.322.007.586.011.8a1.3,1.3,0,0,0,.911,1.21l.649.205a.218.218,0,0,1,.141.274l0,.011a.344.344,0,0,1-.325.215c-.785,0-1.593-.014-2.387-.014-.7,0-1.4.011-2.1.014a.179.179,0,0,1-.183-.175.2.2,0,0,1,0-.034.421.421,0,0,1,.226-.3l.346-.173a1,1,0,0,0,.573-.853c.017-.629.024-1.77.024-3.545v-3.138a1.021,1.021,0,0,0-.609-.932l-.413-.182A.226.226,0,0,1,357.483-1310.932Z" transform="translate(514.593 7058.753)"/>
    <path id="F-2" d="M411.118-1310.932a.291.291,0,0,1,.263-.2c.608,0,1.226.014,1.832.014H417.1c.274-.043,1.133-.156,1.5-.19a.049.049,0,0,1,.048.027.144.144,0,0,1,.012.074c-.029.448-.274,1.839-.4,2.363a.267.267,0,0,1-.175.185.182.182,0,0,1-.219-.108c-.113-.234-.238-.5-.361-.756a1.514,1.514,0,0,0-1.433-.866l-.35.015a1.423,1.423,0,0,0-1.36,1.42v.573a1.782,1.782,0,0,0,1.77,1.795c.037,0,.075,0,.112,0,.663-.041,1.295-.1,1.807-.148a.169.169,0,0,1,.16.094.192.192,0,0,1,.011.2c-.171.272-.707.885-.9.885-.086,0-.636-.042-1.25-.086a1.6,1.6,0,0,0-1.7,1.49c0,.041,0,.083,0,.124,0,.322.007.586.012.8a1.3,1.3,0,0,0,.911,1.21l.649.205a.218.218,0,0,1,.142.274l0,.011a.344.344,0,0,1-.325.215c-.785,0-1.592-.014-2.386-.014-.7,0-1.4.011-2.1.014a.179.179,0,0,1-.183-.175.152.152,0,0,1,0-.034.419.419,0,0,1,.226-.3l.345-.173a1,1,0,0,0,.573-.853c.017-.629.023-1.77.023-3.545v-3.138a1.021,1.021,0,0,0-.609-.932l-.413-.182A.226.226,0,0,1,411.118-1310.932Z" transform="translate(493.811 7058.753)"/>
  </g>
</svg>
