<svg xmlns="http://www.w3.org/2000/svg" width="145.578" height="9.995" viewBox="0 0 145.578 9.995">
  <g id="ttl_theme" transform="translate(-761.595 -2693.504)">
    <g id="グループ化_11" data-name="グループ化 11" transform="translate(723.595 4076.059)">
      <g id="グループ化_4" data-name="グループ化 4" transform="translate(38 -1382.555)">
        <path id="パス_162" data-name="パス 162" d="M45.623-1382.35c.4-.069,1.046-.177,1.391-.2a.122.122,0,0,1,.1.04.131.131,0,0,1,.029.1c-.078.564-.338,1.93-.471,2.436a.272.272,0,0,1-.162.179.128.128,0,0,1-.17-.062h0c-.089-.216-.24-.55-.391-.906a1.46,1.46,0,0,0-1.41-.907,1.1,1.1,0,0,0-1.037,1.1v2.523c0,1.927.016,2.959.035,3.555a1.293,1.293,0,0,0,.914,1.177l.654.208a.215.215,0,0,1,.14.27h0a.291.291,0,0,1-.273.206c-.814,0-1.627-.014-2.441-.014-.841,0-1.694.012-2.547.014a.167.167,0,0,1-.165-.168.165.165,0,0,1,.007-.045.423.423,0,0,1,.267-.287l.542-.192a1.162,1.162,0,0,0,.774-1.085c.005-.55.005-1.463.005-3.169v-3.067a1.026,1.026,0,0,0-.964-1.025,1.645,1.645,0,0,0-1.473.766c-.22.343-.454.69-.636.933a.384.384,0,0,1-.207.133c-.061.017-.134-.008-.135-.071-.006-.57.031-1.992.092-2.485a.173.173,0,0,1,.064-.123.171.171,0,0,1,.107-.035c.142.008.37.041.6.08a8.247,8.247,0,0,0,1.361.125Z" transform="translate(-38 1382.555)"/>
      </g>
      <g id="グループ化_5" data-name="グループ化 5" transform="translate(69.84 -1382.352)">
        <path id="パス_163" data-name="パス 163" d="M92.373-1382a.278.278,0,0,1,.256-.205c.613,0,1.225.014,1.825.014.553,0,1.1-.011,1.636-.014a.175.175,0,0,1,.173.178.177.177,0,0,1-.008.049.684.684,0,0,1-.26.366l-.159.113a.837.837,0,0,0-.353.683v1.149a1.582,1.582,0,0,0,1.58,1.583h.942a1.6,1.6,0,0,0,1.6-1.6v-1.165a.839.839,0,0,0-.353-.683l-.174-.124a.326.326,0,0,1-.128-.34.273.273,0,0,1,.261-.213c.489,0,.978.014,1.468.014.68,0,1.36-.012,2.04-.014a.168.168,0,0,1,.165.172.162.162,0,0,1-.006.041.459.459,0,0,1-.25.307l-.368.172a.986.986,0,0,0-.566.891v3.1c0,1.143.021,2.551.053,3.381a1.112,1.112,0,0,0,.683.968l.438.188a.25.25,0,0,1,.143.291.269.269,0,0,1-.258.206c-.669,0-1.348-.014-2.014-.014-.566,0-1.144.011-1.723.014a.174.174,0,0,1-.186-.161.168.168,0,0,1,0-.052.684.684,0,0,1,.245-.347l.167-.125a.891.891,0,0,0,.358-.691c.012-.55.014-1.1.011-1.635a1.782,1.782,0,0,0-1.842-1.713h-.449a1.857,1.857,0,0,0-1.848,1.864c0,.446,0,.913.012,1.405a.937.937,0,0,0,.454.771l.259.16a.284.284,0,0,1,.124.319.3.3,0,0,1-.3.206c-.554,0-1.107-.014-1.661-.014-.666,0-1.345.012-2.014.014a.159.159,0,0,1-.157-.16.17.17,0,0,1,.007-.046.494.494,0,0,1,.25-.3l.331-.168a1,1,0,0,0,.544-.854c.026-.812.066-2.277.066-3.607v-3.03a.971.971,0,0,0-.544-.871l-.35-.17A.25.25,0,0,1,92.373-1382Z" transform="translate(-92.195 1382.21)"/>
      </g>
      <g id="グループ化_6" data-name="グループ化 6" transform="translate(104.218 -1382.542)">
        <path id="パス_164" data-name="パス 164" d="M150.855-1382.157a.283.283,0,0,1,.265-.2c.64,0,1.278.014,1.9.014h2.855a12.37,12.37,0,0,0,1.571-.109c.291-.036.591-.071.763-.081a.067.067,0,0,1,.055.028.1.1,0,0,1,.02.068c-.025.4-.211,1.649-.32,2.166a.262.262,0,0,1-.171.186.19.19,0,0,1-.227-.094c-.1-.175-.244-.425-.385-.676a1.5,1.5,0,0,0-1.392-.76l-.357.021a1.373,1.373,0,0,0-1.294,1.371v.454a1.667,1.667,0,0,0,1.636,1.7h.1c.7-.039,1.37-.094,1.9-.141a.15.15,0,0,1,.15.079.192.192,0,0,1,0,.182c-.159.276-.689.907-.869.907-.083,0-.539-.033-1.073-.073a1.713,1.713,0,0,0-1.827,1.591c0,.048,0,.1,0,.146,0,.21.006.423.01.633a1.411,1.411,0,0,0,1.343,1.361,2.547,2.547,0,0,0,2.114-.94c.277-.338.549-.656.783-.887a.218.218,0,0,1,.244-.028.221.221,0,0,1,.123.239c-.039.243-.125.674-.22,1.107a1.634,1.634,0,0,1-1.648,1.243c-.421-.005-.833-.005-1.26-.005h-2.647c-.64,0-1.425.024-2.124.028a.156.156,0,0,1-.162-.151.153.153,0,0,1,.006-.049.464.464,0,0,1,.246-.286l.408-.192a1.1,1.1,0,0,0,.641-.949c.025-.682.043-1.859.043-3.453v-3.052a1.018,1.018,0,0,0-.632-.941l-.439-.178A.224.224,0,0,1,150.855-1382.157Z" transform="translate(-150.708 1382.533)"/>
      </g>
      <g id="グループ化_7" data-name="グループ化 7" transform="translate(137.379 -1382.35)">
        <path id="パス_165" data-name="パス 165" d="M207.884-1381.993a.338.338,0,0,1,.306-.2l1.378-.013a2.38,2.38,0,0,1,2.062,1.51c.5,1.059,1.315,2.708,2.3,4.781.006.012.014.025.026.025s.026-.023.034-.04c.363-.75,1.22-2.473,2.253-4.709a2.476,2.476,0,0,1,2.17-1.565l1.5.014a.172.172,0,0,1,.171.173.224.224,0,0,1,0,.035.4.4,0,0,1-.24.285l-.422.171a.95.95,0,0,0-.6.892c.046,1.666.194,4.95.292,6.446a1.179,1.179,0,0,0,.732,1.013l.472.193a.244.244,0,0,1,.145.286.266.266,0,0,1-.254.205c-.656,0-1.322-.014-1.989-.014s-1.348.012-2.036.014a.162.162,0,0,1-.162-.161.161.161,0,0,1,.006-.044.556.556,0,0,1,.241-.319l.258-.16a.9.9,0,0,0,.436-.768c-.028-2.168-.055-4.315-.082-6.474,0-.023-.007-.05-.03-.05a.056.056,0,0,0-.046.04c-.709,1.662-1.729,3.894-3.305,7.767a.4.4,0,0,1-.253.238.2.2,0,0,1-.244-.113c-.693-1.68-1.344-3.214-3.217-7.713-.005-.012-.012-.026-.025-.026s-.016.014-.017.026c-.155,1.8-.319,4.662-.383,6.066a1.054,1.054,0,0,0,.627,1l.469.212a.25.25,0,0,1,.142.281.261.261,0,0,1-.26.2c-.5,0-1.02-.014-1.535-.014-.489,0-.989.011-1.481.014a.16.16,0,0,1-.164-.157.178.178,0,0,1,0-.043.478.478,0,0,1,.231-.3l.342-.189a1.225,1.225,0,0,0,.629-.885c.187-1.234.515-3.96.749-5.95.066-.563.044-1.234-.474-1.463-.15-.065-.35-.138-.629-.242a.206.206,0,0,1-.125-.263Z" transform="translate(-207.151 1382.206)"/>
      </g>
      <g id="グループ化_8" data-name="グループ化 8" transform="translate(175.514 -1382.542)">
        <path id="パス_166" data-name="パス 166" d="M272.206-1382.157a.281.281,0,0,1,.264-.2c.64,0,1.278.014,1.9.014h2.855a12.356,12.356,0,0,0,1.571-.109c.291-.036.591-.071.763-.081a.066.066,0,0,1,.055.028.1.1,0,0,1,.02.068c-.025.4-.211,1.649-.32,2.166a.263.263,0,0,1-.171.186.19.19,0,0,1-.227-.094c-.1-.175-.244-.425-.385-.676a1.5,1.5,0,0,0-1.392-.76l-.357.021a1.373,1.373,0,0,0-1.294,1.371v.454a1.667,1.667,0,0,0,1.636,1.7h.1c.7-.039,1.37-.094,1.9-.141a.15.15,0,0,1,.15.079.192.192,0,0,1,0,.182c-.159.276-.689.907-.869.907-.083,0-.539-.033-1.073-.073a1.713,1.713,0,0,0-1.827,1.591c0,.048,0,.1,0,.146,0,.21.005.423.009.633a1.411,1.411,0,0,0,1.343,1.361,2.547,2.547,0,0,0,2.113-.94c.278-.338.552-.656.784-.887a.219.219,0,0,1,.244-.028.222.222,0,0,1,.124.239c-.04.243-.126.674-.22,1.107a1.634,1.634,0,0,1-1.648,1.243c-.422-.005-.833-.005-1.26-.005h-2.647c-.64,0-1.425.024-2.124.028a.156.156,0,0,1-.162-.151.171.171,0,0,1,.006-.049.463.463,0,0,1,.246-.286l.408-.192a1.1,1.1,0,0,0,.642-.949c.024-.682.042-1.859.042-3.453v-3.052a1.018,1.018,0,0,0-.629-.939l-.439-.179A.223.223,0,0,1,272.206-1382.157Z" transform="translate(-272.059 1382.533)"/>
      </g>
    </g>
  </g>
</svg>
